<svg width="282" height="48" viewBox="0 0 282 48" fill="none" xmlns="http://www.w3.org/2000/svg"><title>Atlassian logo</title><g clip-path="url(#clip0_994_4077)"><path d="M10.3 19.9003C9.80005 19.3003 9.00005 19.4003 8.60005 20.1003L0.100048 37.1003C-0.199952 37.8003 0.300048 38.6003 1.00005 38.6003H12.8C13.2 38.6003 13.5 38.4003 13.7 38.0003C16.3 32.7003 14.7 24.7003 10.3 19.9003Z" fill="url(#paint0_linear_994_4077)"></path><path d="M16.5001 4.5001C11.8001 12.0001 12.1001 20.3001 15.2001 26.6001C18.3001 32.9001 20.7001 37.6001 20.9001 38.0001C21.1001 38.4001 21.4001 38.6001 21.8001 38.6001H33.6001C34.4001 38.6001 34.8001 37.8001 34.5001 37.1001C34.5001 37.1001 18.6001 5.3001 18.2001 4.5001C17.9001 3.8001 16.9001 3.8001 16.5001 4.5001Z" fill="#0082FF"></path><path d="M155 18.1004C155 22.3004 156.9 25.6004 164.6 27.1004C169.1 28.1004 170.1 28.8004 170.1 30.3004C170.1 31.8004 169.1 32.7004 165.9 32.7004C162.2 32.7004 157.8 31.4004 154.9 29.7004V36.5004C157.2 37.6004 160.2 38.9004 165.9 38.9004C173.9 38.9004 177 35.3004 177 30.1004M177 30.2004C177 25.2004 174.4 22.9004 166.9 21.3004C162.8 20.4004 161.8 19.5004 161.8 18.2004C161.8 16.6004 163.3 15.9004 166 15.9004C169.3 15.9004 172.5 16.9004 175.6 18.3004V11.8004C173.4 10.7004 170.1 9.90039 166.2 9.90039C158.8 9.90039 155 13.1004 155 18.3004" fill="#0050D3"></path><path d="M257.4 10.1001V38.6001H263.5V16.9001L266 22.6001L274.6 38.6001H282.2V10.1001H276.2V28.5001L273.9 23.1001L267 10.1001H257.4Z" fill="#0050D3"></path><path d="M218.8 10.1001H212.2V38.6001H218.8V10.1001Z" fill="#0050D3"></path><path d="M204.6 30.1003C204.6 25.1003 202 22.8003 194.5 21.2003C190.4 20.3003 189.4 19.4003 189.4 18.1003C189.4 16.5003 190.9 15.8003 193.6 15.8003C196.9 15.8003 200.1 16.8003 203.2 18.2003V11.7003C201 10.6003 197.7 9.80029 193.8 9.80029C186.4 9.80029 182.6 13.0003 182.6 18.2003C182.6 22.4003 184.5 25.7003 192.2 27.2003C196.7 28.2003 197.7 28.9003 197.7 30.4003C197.7 31.9003 196.7 32.8003 193.5 32.8003C189.8 32.8003 185.4 31.5003 182.5 29.8003V36.6003C184.8 37.7003 187.8 39.0003 193.5 39.0003C201.4 39.0003 204.6 35.4003 204.6 30.1003Z" fill="#0050D3"></path><path d="M103.6 10.1001V38.6001H117.2L119.3 32.4001H110.2V10.1001H103.6Z" fill="#0050D3"></path><path d="M76.7001 10.1001V16.2001H84.0001V38.6001H90.7001V16.2001H98.6001V10.1001H76.7001Z" fill="#0050D3"></path><path d="M67 10.1001H58.3L48.4 38.6001H56L57.4 33.8001C59.1 34.3001 60.9 34.6001 62.7 34.6001C64.5 34.6001 66.3 34.3001 68 33.8001L69.4 38.6001H77C76.9 38.6001 67 10.1001 67 10.1001ZM62.6 28.6001C61.3 28.6001 60.1 28.4001 59 28.1001L62.6 15.7001L66.2 28.1001C65.1 28.4001 63.9 28.6001 62.6 28.6001Z" fill="#0050D3"></path><path d="M140.7 10.1001H132L122 38.6001H129.6L131 33.8001C132.7 34.3001 134.5 34.6001 136.3 34.6001C138.1 34.6001 139.9 34.3001 141.6 33.8001L143 38.6001H150.6L140.7 10.1001ZM136.3 28.6001C135 28.6001 133.8 28.4001 132.7 28.1001L136.3 15.7001L139.9 28.1001C138.8 28.4001 137.6 28.6001 136.3 28.6001Z" fill="#0050D3"></path><path d="M242.7 10.1001H234L224.1 38.6001H231.7L233.1 33.8001C234.8 34.3001 236.6 34.6001 238.4 34.6001C240.2 34.6001 242 34.3001 243.7 33.8001L245.1 38.6001H252.7L242.7 10.1001ZM238.4 28.6001C237.1 28.6001 235.9 28.4001 234.8 28.1001L238.4 15.7001L242 28.1001C240.9 28.4001 239.6 28.6001 238.4 28.6001Z" fill="#0050D3"></path></g><defs><linearGradient id="paint0_linear_994_4077" x1="14.9161" y1="22.5557" x2="5.96115" y2="38.0657" gradientUnits="userSpaceOnUse"><stop stop-color="#0050D3"></stop><stop offset="0.923" stop-color="#0082FF"></stop></linearGradient><clipPath id="clip0_994_4077"><rect width="282" height="48" fill="white"></rect></clipPath></defs></svg>